<svg xmlns="http://www.w3.org/2000/svg" viewBox="0 0 24 24" fill="none" stroke="#ff9800" stroke-width="1.5" stroke-linecap="round" stroke-linejoin="round">
  <path d="M7.5 13.5A2.5 2.5 0 0 0 10 11c0-1.38-.5-2-1-3-1.072-2.143-.224-4.054 2-6 .5 2.5 2 4.9 4 6.5 2 1.6 3 3.5 3 5.5a7 7 0 1 1-14 0c0-1.153.433-2.294 1-3a2.5 2.5 0 0 0 2.5 2.5z" fill="#ff9800" opacity="0.3"/>
  <path d="M7.5 13.5A2.5 2.5 0 0 0 10 11c0-1.38-.5-2-1-3-1.072-2.143-.224-4.054 2-6 .5 2.5 2 4.9 4 6.5 2 1.6 3 3.5 3 5.5a7 7 0 1 1-14 0c0-1.153.433-2.294 1-3a2.5 2.5 0 0 0 2.5 2.5z"/>
  
  <path d="M20 4c-3 0-5 2-7 5-1 1.5-1 3-1 3s1.5 0 3-1c3-2 5-4 5-7z" fill="#ff9800"/>
  <path d="M12 12L9 15l-3 3-1 3 3-1 3-3 3-3" />
  
  <path d="M8 18l-2-2" />
</svg>